<svg xmlns="http://www.w3.org/2000/svg" xmlns:xlink="http://www.w3.org/1999/xlink" width="700" zoomAndPan="magnify" viewBox="0 0 375 374.999991" height="700" preserveAspectRatio="xMidYMid meet" version="1.0"><defs><g/></defs><rect x="-37.5" width="450" fill="#ffffff" y="-37.499999" height="449.999989" fill-opacity="1"/><rect x="-37.5" width="450" fill="#ffffff" y="-37.499999" height="449.999989" fill-opacity="1"/><g fill="#ff3131" fill-opacity="1"><g transform="translate(263.035065, 223.939965)"><g><path d="M 1.78125 -2.109375 L 1.375 0 L 0.296875 0 L 2.3125 -10.5 L 4 -10.5 L 6.015625 0 L 4.84375 0 L 4.4375 -2.109375 Z M 1.9375 -3.125 L 4.28125 -3.125 L 3.09375 -9.1875 Z M 1.9375 -3.125 "/></g></g></g><g fill="#ff3131" fill-opacity="1"><g transform="translate(269.365055, 223.939965)"><g><path d="M 3.0625 -10.5 C 3.882812 -10.5 4.484375 -10.265625 4.859375 -9.796875 C 5.242188 -9.335938 5.4375 -8.703125 5.4375 -7.890625 L 5.4375 -2.59375 C 5.4375 -1.78125 5.242188 -1.144531 4.859375 -0.6875 C 4.484375 -0.226562 3.882812 0 3.0625 0 L 0.59375 0 L 0.59375 -10.5 Z M 3.046875 -1.0625 C 3.460938 -1.0625 3.773438 -1.1875 3.984375 -1.4375 C 4.191406 -1.695312 4.296875 -2.066406 4.296875 -2.546875 L 4.296875 -7.953125 C 4.296875 -8.429688 4.191406 -8.796875 3.984375 -9.046875 C 3.773438 -9.304688 3.457031 -9.4375 3.03125 -9.4375 L 1.765625 -9.4375 L 1.765625 -1.0625 Z M 3.046875 -1.0625 "/></g></g></g><g fill="#ff3131" fill-opacity="1"><g transform="translate(275.305053, 223.939965)"><g><path d="M 4.46875 -0.015625 L 3.34375 -0.015625 L 1.609375 -8.375 L 1.609375 0 L 0.578125 0 L 0.578125 -10.5 L 2.21875 -10.5 L 3.9375 -2.109375 L 5.609375 -10.5 L 7.25 -10.5 L 7.25 0 L 6.140625 0 L 6.140625 -8.4375 Z M 4.46875 -0.015625 "/></g></g></g><g fill="#ff3131" fill-opacity="1"><g transform="translate(283.150046, 223.939965)"><g><path d="M 1.765625 -10.5 L 1.765625 0 L 0.59375 0 L 0.59375 -10.5 Z M 1.765625 -10.5 "/></g></g></g><g fill="#ff3131" fill-opacity="1"><g transform="translate(285.520049, 223.939965)"><g><path d="M 1.640625 0 L 0.578125 0 L 0.578125 -10.5 L 2.0625 -10.5 L 4.5 -2.90625 L 4.5 -10.5 L 5.53125 -10.5 L 5.53125 0 L 4.3125 0 L 1.640625 -8.484375 Z M 1.640625 0 "/></g></g></g><g fill="#ff3131" fill-opacity="1"><g transform="translate(291.655043, 223.939965)"><g><path d="M 1.765625 -10.5 L 1.765625 0 L 0.59375 0 L 0.59375 -10.5 Z M 1.765625 -10.5 "/></g></g></g><g fill="#ff3131" fill-opacity="1"><g transform="translate(294.025046, 223.939965)"><g><path d="M 2.8125 -10.609375 C 3.601562 -10.609375 4.1875 -10.367188 4.5625 -9.890625 C 4.945312 -9.421875 5.140625 -8.785156 5.140625 -7.984375 L 5.140625 -7.6875 L 4.03125 -7.6875 L 4.03125 -8.046875 C 4.03125 -8.523438 3.9375 -8.894531 3.75 -9.15625 C 3.5625 -9.414062 3.253906 -9.546875 2.828125 -9.546875 C 2.410156 -9.546875 2.109375 -9.414062 1.921875 -9.15625 C 1.734375 -8.894531 1.640625 -8.53125 1.640625 -8.0625 C 1.640625 -7.664062 1.722656 -7.320312 1.890625 -7.03125 C 2.066406 -6.738281 2.285156 -6.46875 2.546875 -6.21875 C 2.804688 -5.976562 3.085938 -5.738281 3.390625 -5.5 C 3.703125 -5.269531 3.988281 -5.015625 4.25 -4.734375 C 4.507812 -4.453125 4.722656 -4.132812 4.890625 -3.78125 C 5.066406 -3.425781 5.15625 -3.003906 5.15625 -2.515625 C 5.15625 -1.710938 4.960938 -1.070312 4.578125 -0.59375 C 4.191406 -0.125 3.597656 0.109375 2.796875 0.109375 C 1.984375 0.109375 1.382812 -0.125 1 -0.59375 C 0.625 -1.070312 0.4375 -1.710938 0.4375 -2.515625 L 0.4375 -3.125 L 1.53125 -3.125 L 1.53125 -2.453125 C 1.53125 -1.972656 1.628906 -1.601562 1.828125 -1.34375 C 2.023438 -1.082031 2.335938 -0.953125 2.765625 -0.953125 C 3.179688 -0.953125 3.488281 -1.082031 3.6875 -1.34375 C 3.882812 -1.601562 3.984375 -1.972656 3.984375 -2.453125 C 3.984375 -2.847656 3.894531 -3.1875 3.71875 -3.46875 C 3.550781 -3.757812 3.335938 -4.023438 3.078125 -4.265625 C 2.816406 -4.515625 2.535156 -4.753906 2.234375 -4.984375 C 1.929688 -5.222656 1.648438 -5.484375 1.390625 -5.765625 C 1.128906 -6.046875 0.910156 -6.363281 0.734375 -6.71875 C 0.566406 -7.070312 0.484375 -7.492188 0.484375 -7.984375 C 0.484375 -8.785156 0.671875 -9.421875 1.046875 -9.890625 C 1.429688 -10.367188 2.019531 -10.609375 2.8125 -10.609375 Z M 2.8125 -10.609375 "/></g></g></g><g fill="#ff3131" fill-opacity="1"><g transform="translate(299.605036, 223.939965)"><g><path d="M 2.125 0 L 2.125 -9.4375 L 0.1875 -9.4375 L 0.1875 -10.5 L 5.234375 -10.5 L 5.234375 -9.4375 L 3.296875 -9.4375 L 3.296875 0 Z M 2.125 0 "/></g></g></g><g fill="#ff3131" fill-opacity="1"><g transform="translate(305.050031, 223.939965)"><g><path d="M 2.9375 -10.5 C 3.769531 -10.5 4.367188 -10.289062 4.734375 -9.875 C 5.097656 -9.46875 5.28125 -8.875 5.28125 -8.09375 L 5.28125 -7.25 C 5.28125 -6.664062 5.175781 -6.191406 4.96875 -5.828125 C 4.757812 -5.472656 4.425781 -5.222656 3.96875 -5.078125 C 4.445312 -4.941406 4.785156 -4.6875 4.984375 -4.3125 C 5.191406 -3.9375 5.296875 -3.460938 5.296875 -2.890625 L 5.296875 -1.265625 C 5.296875 -1.035156 5.304688 -0.8125 5.328125 -0.59375 C 5.347656 -0.375 5.40625 -0.175781 5.5 0 L 4.3125 0 C 4.25 -0.144531 4.203125 -0.304688 4.171875 -0.484375 C 4.140625 -0.660156 4.125 -0.925781 4.125 -1.28125 L 4.125 -2.921875 C 4.125 -3.515625 3.988281 -3.921875 3.71875 -4.140625 C 3.457031 -4.367188 3.082031 -4.484375 2.59375 -4.484375 L 1.765625 -4.484375 L 1.765625 0 L 0.59375 0 L 0.59375 -10.5 Z M 2.640625 -5.546875 C 3.109375 -5.546875 3.472656 -5.644531 3.734375 -5.84375 C 3.992188 -6.039062 4.125 -6.421875 4.125 -6.984375 L 4.125 -8 C 4.125 -8.476562 4.03125 -8.835938 3.84375 -9.078125 C 3.65625 -9.316406 3.34375 -9.4375 2.90625 -9.4375 L 1.765625 -9.4375 L 1.765625 -5.546875 Z M 2.640625 -5.546875 "/></g></g></g><g fill="#ff3131" fill-opacity="1"><g transform="translate(310.960023, 223.939965)"><g><path d="M 1.78125 -2.109375 L 1.375 0 L 0.296875 0 L 2.3125 -10.5 L 4 -10.5 L 6.015625 0 L 4.84375 0 L 4.4375 -2.109375 Z M 1.9375 -3.125 L 4.28125 -3.125 L 3.09375 -9.1875 Z M 1.9375 -3.125 "/></g></g></g><g fill="#ff3131" fill-opacity="1"><g transform="translate(317.290013, 223.939965)"><g><path d="M 2.125 0 L 2.125 -9.4375 L 0.1875 -9.4375 L 0.1875 -10.5 L 5.234375 -10.5 L 5.234375 -9.4375 L 3.296875 -9.4375 L 3.296875 0 Z M 2.125 0 "/></g></g></g><g fill="#ff3131" fill-opacity="1"><g transform="translate(322.735008, 223.939965)"><g><path d="M 1.765625 -10.5 L 1.765625 0 L 0.59375 0 L 0.59375 -10.5 Z M 1.765625 -10.5 "/></g></g></g><g fill="#ff3131" fill-opacity="1"><g transform="translate(325.105011, 223.939965)"><g><path d="M 0.515625 -7.96875 C 0.515625 -8.78125 0.707031 -9.421875 1.09375 -9.890625 C 1.488281 -10.367188 2.09375 -10.609375 2.90625 -10.609375 C 3.71875 -10.609375 4.320312 -10.367188 4.71875 -9.890625 C 5.125 -9.421875 5.328125 -8.78125 5.328125 -7.96875 L 5.328125 -2.53125 C 5.328125 -1.726562 5.125 -1.085938 4.71875 -0.609375 C 4.320312 -0.128906 3.71875 0.109375 2.90625 0.109375 C 2.09375 0.109375 1.488281 -0.128906 1.09375 -0.609375 C 0.707031 -1.085938 0.515625 -1.726562 0.515625 -2.53125 Z M 1.671875 -2.46875 C 1.671875 -1.988281 1.769531 -1.613281 1.96875 -1.34375 C 2.175781 -1.082031 2.488281 -0.953125 2.90625 -0.953125 C 3.34375 -0.953125 3.660156 -1.082031 3.859375 -1.34375 C 4.054688 -1.613281 4.15625 -1.988281 4.15625 -2.46875 L 4.15625 -8.03125 C 4.15625 -8.507812 4.054688 -8.878906 3.859375 -9.140625 C 3.660156 -9.410156 3.34375 -9.546875 2.90625 -9.546875 C 2.488281 -9.546875 2.175781 -9.410156 1.96875 -9.140625 C 1.769531 -8.878906 1.671875 -8.507812 1.671875 -8.03125 Z M 1.671875 -2.46875 "/></g></g></g><g fill="#ff3131" fill-opacity="1"><g transform="translate(330.94001, 223.939965)"><g><path d="M 1.640625 0 L 0.578125 0 L 0.578125 -10.5 L 2.0625 -10.5 L 4.5 -2.90625 L 4.5 -10.5 L 5.53125 -10.5 L 5.53125 0 L 4.3125 0 L 1.640625 -8.484375 Z M 1.640625 0 "/></g></g></g><g fill="#ff3131" fill-opacity="1"><g transform="translate(337.085841, 223.939965)"><g/></g></g><g fill="#000000" fill-opacity="1"><g transform="translate(40.216771, 199.521637)"><g><path d="M 46.363281 -56.027344 L 37.328125 -56.027344 C 36.839844 -56.027344 36.488281 -55.679688 36.488281 -55.398438 L 36.488281 -18.910156 L 10.644531 -55.816406 C 10.574219 -55.957031 10.15625 -56.027344 10.015625 -56.027344 L 0.699219 -56.027344 C 0.351562 -56.027344 0 -55.679688 0 -55.398438 L 0 -13.445312 L 10.714844 -13.445312 L 10.714844 -37.117188 L 36.488281 -0.210938 C 36.558594 -0.0703125 36.976562 0 37.117188 0 L 46.363281 0 C 46.851562 0 47.132812 -0.351562 47.132812 -0.628906 L 47.132812 -55.398438 C 47.132812 -55.679688 46.851562 -56.027344 46.363281 -56.027344 Z M 46.363281 -56.027344 "/></g></g></g><g fill="#000000" fill-opacity="1"><g transform="translate(89.728841, 199.521637)"><g><path d="M 26.613281 -10.433594 L 10.714844 -10.433594 L 10.714844 -23.042969 L 32.707031 -23.042969 C 33.125 -23.042969 33.476562 -23.390625 33.476562 -23.671875 L 33.476562 -32.566406 C 33.476562 -32.917969 33.125 -33.195312 32.707031 -33.195312 L 10.714844 -33.195312 L 10.714844 -45.871094 L 26.613281 -45.871094 L 26.613281 -56.027344 L 0.769531 -56.027344 C 0.351562 -56.027344 0 -55.679688 0 -55.398438 L 0 -0.628906 C 0 -0.351562 0.351562 0 0.769531 0 L 26.613281 0 Z M 26.613281 -10.433594 "/></g></g></g><g fill="#000000" fill-opacity="1"><g transform="translate(124.884516, 199.521637)"><g><path d="M 51.054688 -56.027344 L 39.851562 -56.027344 C 39.710938 -56.027344 39.289062 -55.957031 39.21875 -55.816406 L 25.984375 -37.117188 L 20.101562 -45.3125 L 7.074219 -45.3125 C 11.207031 -39.5 15.269531 -33.6875 19.398438 -28.015625 L 0.210938 -1.050781 C -0.210938 -0.558594 0.0703125 0 0.769531 0 L 11.976562 0 C 12.117188 0 12.535156 -0.0703125 12.605469 -0.210938 L 25.984375 -18.910156 L 31.796875 -10.714844 L 44.824219 -10.714844 C 40.691406 -16.527344 36.558594 -22.339844 32.425781 -28.015625 L 51.757812 -54.976562 C 52.105469 -55.46875 51.824219 -56.027344 51.054688 -56.027344 Z M 51.054688 -56.027344 "/></g></g></g><g fill="#000000" fill-opacity="1"><g transform="translate(179.368804, 199.521637)"><g><path d="M 41.320312 -56.027344 L 32.214844 -56.027344 C 31.726562 -56.027344 31.445312 -55.679688 31.445312 -55.398438 L 31.445312 -18.699219 C 31.445312 -13.027344 26.261719 -10.296875 21.011719 -10.296875 C 15.828125 -10.296875 11.207031 -13.238281 10.574219 -18.769531 L 10.574219 -45.871094 L 0 -45.871094 L 0 -18.699219 C 0 -7.144531 9.453125 0 21.011719 0 C 32.917969 0 42.019531 -6.863281 42.019531 -18.699219 L 42.019531 -55.398438 C 42.019531 -55.679688 41.671875 -56.027344 41.320312 -56.027344 Z M 41.320312 -56.027344 "/></g></g></g><g fill="#000000" fill-opacity="1"><g transform="translate(223.488475, 199.521637)"><g><path d="M 38.238281 -0.910156 C 34.738281 -8.683594 30.957031 -16.386719 27.453125 -24.300781 C 33.054688 -26.332031 37.75 -30.816406 37.75 -39.359375 C 37.75 -55.886719 21.992188 -56.027344 18.839844 -56.027344 L 0.699219 -56.027344 C 0.351562 -56.027344 0 -55.679688 0 -55.398438 L 0 -45.871094 L 18.839844 -45.871094 C 20.519531 -45.871094 27.105469 -45.523438 27.105469 -39.359375 C 27.105469 -33.195312 21.152344 -32.917969 18.839844 -32.917969 L 0 -32.917969 L 0 -0.628906 C 0 -0.351562 0.351562 0 0.699219 0 L 9.875 0 C 10.296875 0 10.644531 -0.351562 10.644531 -0.628906 L 10.644531 -22.621094 L 16.667969 -22.621094 L 26.894531 -0.421875 C 26.964844 -0.210938 27.382812 0 27.59375 0 L 37.609375 0 C 38.167969 0 38.449219 -0.421875 38.238281 -0.910156 Z M 38.238281 -0.910156 "/></g></g></g><g fill="#000000" fill-opacity="1"><g transform="translate(263.756444, 199.521637)"><g><path d="M 22.832031 -9.59375 L 17.230469 -9.59375 L 17.230469 -56.027344 L 6.511719 -56.027344 L 6.511719 -9.59375 L 0.769531 -9.59375 C 0.351562 -9.59375 0 -9.316406 0 -8.964844 L 0 -0.628906 C 0 -0.351562 0.351562 0 0.769531 0 L 22.832031 0 C 23.320312 0 23.601562 -0.351562 23.601562 -0.628906 L 23.601562 -8.964844 C 23.601562 -9.316406 23.320312 -9.59375 22.832031 -9.59375 Z M 22.832031 -9.59375 "/></g></g></g><g fill="#000000" fill-opacity="1"><g transform="translate(288.547504, 199.521637)"><g><path d="M 43.980469 -0.839844 L 22.691406 -55.609375 C 22.480469 -56.167969 21.5 -56.167969 21.289062 -55.609375 L 0.0703125 -0.839844 C -0.140625 -0.421875 0.140625 0 0.769531 0 L 10.363281 0 C 10.644531 0 10.996094 -0.140625 11.066406 -0.421875 L 21.992188 -31.65625 L 33.054688 -0.421875 C 33.125 -0.140625 33.476562 0 33.6875 0 L 43.351562 0 C 43.84375 0 44.191406 -0.421875 43.980469 -0.839844 Z M 43.980469 -0.839844 "/></g></g></g></svg>